<?xml version="1.0" encoding="UTF-8"?>
<svg width="960px" height="260px" viewBox="0 0 960 260" version="1.1" xmlns="http://www.w3.org/2000/svg" xmlns:xlink="http://www.w3.org/1999/xlink">
    <title>WV Named Logo</title>
    <defs>
        <path d="M0,0 L810,0 L810,152 L0,152 L0,0 Z" id="path-1"></path>
    </defs>
    <g id="WV-Named-Logo" stroke="none" fill="none" fill-rule="evenodd">
        <g id="Weibel-Logo-with-Name" transform="translate(75, 54)" xlink:href="#path-1" fill="#3A4251">
            <g id="WV-Logo">
                <polygon id="V" points="149.693291 0 186.460064 0 211.846645 88.4519774 237.233227 0 274 0 230.230032 152 193.463259 152"></polygon>
                <path d="M0,0 L43.7699681,152 C68.2811502,152 80.5367412,152 80.5367412,152 L105.923323,63.5480226 L131.309904,152 L168.076677,152 L124.306709,0 L87.5399361,0 L62.156273,88.4519774 L36.7667732,0 L0,0 Z" id="W"></path>
            </g>
            <g id="Name" stroke-width="1" transform="translate(306, 0)">
                <g id="WEIBEL" fill-rule="nonzero">
                    <polygon id="Path" points="17.0455374 72 0 0 14.7565653 0 25.5196046 49.4570259 38.5716162 0 55.7145567 0 68.2308513 50.2919509 79.1886968 0 93.7017544 0 76.3640077 72 61.0717256 72 46.8508772 18.1718963 32.6787303 72"></polygon>
                    <polygon id="Path" points="112.614035 72 112.614035 0 166.249972 0 166.249972 12.1800819 127.219589 12.1800819 127.219589 28.1418827 163.536103 28.1418827 163.536103 40.2728513 127.219589 40.2728513 127.219589 59.8690314 167.631579 59.8690314 167.631579 72"></polygon>
                    <polygon id="Path" points="189.982456 72 189.982456 0 204.596491 0 204.596491 72"></polygon>
                    <path d="M229.526316,0 L257.831733,0 C263.434853,0 267.613042,0.237380628 270.3663,0.712141883 C273.119557,1.18690314 275.582998,2.17735334 277.756622,3.6834925 C279.930246,5.18963165 281.7416,7.19508868 283.190682,9.69986357 C284.639765,12.2046385 285.364307,15.0122783 285.364307,18.1227831 C285.364307,21.4952251 284.470705,24.5893588 282.683503,27.4051842 C280.896301,30.2210095 278.473113,32.3328786 275.413938,33.7407913 C279.728985,35.0177353 283.045774,37.1950887 285.364307,40.2728513 C287.682839,43.3506139 288.842105,46.9686221 288.842105,51.1268759 C288.842105,54.4010914 288.093412,57.585266 286.596027,60.6793997 C285.098641,63.7735334 283.053825,66.2455662 280.461576,68.095498 C277.869328,69.9454297 274.673296,71.0832196 270.873478,71.5088677 C268.490542,71.7708049 262.742514,71.9345157 253.629393,72 L229.526316,72 L229.526316,0 Z M243.823933,11.9836289 L243.823933,28.633015 L253.194668,28.633015 C258.765587,28.633015 262.227284,28.5511596 263.579762,28.3874488 C266.027102,28.0927694 267.951161,27.2332879 269.351942,25.8090041 C270.752722,24.3847203 271.453112,22.5102319 271.453112,20.1855389 C271.453112,17.9590723 270.849327,16.1500682 269.641758,14.7585266 C268.434189,13.366985 266.638937,12.5238745 264.256,12.2291951 C262.839119,12.0654843 258.765587,11.9836289 252.035402,11.9836289 L243.823933,11.9836289 Z M243.823933,40.6166439 L243.823933,59.8690314 L257.058889,59.8690314 C262.211183,59.8690314 265.47967,59.7216917 266.864349,59.4270123 C268.989671,59.0341064 270.72052,58.0763984 272.056896,56.5538881 C273.393272,55.0313779 274.061461,52.9931787 274.061461,50.4392906 C274.061461,48.2783083 273.546231,46.4447476 272.515772,44.9386085 C271.485313,43.4324693 269.995978,42.3356071 268.047767,41.6480218 C266.099556,40.9604366 261.873064,40.6166439 255.368292,40.6166439 L243.823933,40.6166439 Z" id="Shape"></path>
                    <polygon id="Path" points="312.912281 72 312.912281 0 366.548218 0 366.548218 12.1800819 327.517835 12.1800819 327.517835 28.1418827 363.834348 28.1418827 363.834348 40.2728513 327.517835 40.2728513 327.517835 59.8690314 367.929825 59.8690314 367.929825 72"></polygon>
                    <polygon id="Path" points="391.140351 72 391.140351 0.86746988 405.44118 0.86746988 405.44118 59.9162758 441 59.9162758 441 72"></polygon>
                </g>
                <g id="VENTURES" transform="translate(0, 92)" fill-rule="nonzero">
                    <path d="M22.5862519,59.1428571 L0,1.71428571 L8.35055089,1.71428571 L23.5008361,43.4342233 C24.7202816,46.7770415 25.7409045,49.9109335 26.5627047,52.8358994 C27.464034,49.7020074 28.5111666,46.5681154 29.7041024,43.4342233 L45.4508555,1.71428571 L53.3242321,1.71428571 L30.499393,59.1428571 L22.5862519,59.1428571 Z" id="Path"></path>
                    <polygon id="Path" points="69.665529 59.1428571 69.665529 1.71428571 111.332456 1.71428571 111.332456 8.49132723 77.2913628 8.49132723 77.2913628 26.0802962 109.170492 26.0802962 109.170492 32.8181641 77.2913628 32.8181641 77.2913628 52.3658156 112.668942 52.3658156 112.668942 59.1428571"></polygon>
                    <polygon id="Path" points="132.450512 59.1428571 132.450512 1.71428571 140.304313 1.71428571 170.693391 46.8031573 170.693391 1.71428571 178.03413 1.71428571 178.03413 59.1428571 170.180329 59.1428571 139.79125 14.0148119 139.79125 59.1428571"></polygon>
                    <polygon id="Path" points="215.903039 59.1428571 215.903039 8.49132723 196.955631 8.49132723 196.955631 1.71428571 242.539249 1.71428571 242.539249 8.49132723 223.513385 8.49132723 223.513385 59.1428571"></polygon>
                    <path d="M296.794414,0.857142857 L304.464164,0.857142857 L304.464164,34.4547284 C304.464164,40.2989365 303.805251,44.9399253 302.487424,48.3776947 C301.169598,51.8154642 298.790921,54.6119575 295.351394,56.7671745 C291.911867,58.9223915 287.398311,60 281.810727,60 C276.381282,60 271.940206,59.0612245 268.487501,57.1836735 C265.034796,55.3061224 262.57046,52.5889623 261.094495,49.0321932 C259.618529,45.475424 258.880546,40.616269 258.880546,34.4547284 L258.880546,0.857142857 L266.550296,0.857142857 L266.550296,34.4150618 C266.550296,39.4659385 267.018125,43.1879851 267.953781,45.5812015 C268.889438,47.9744179 270.497186,49.8189135 272.777026,51.1146881 C275.056866,52.4104628 277.844069,53.0583501 281.138635,53.0583501 C286.778933,53.0583501 290.798303,51.7757976 293.196747,49.2106927 C295.595192,46.6455878 296.794414,41.7137108 296.794414,34.4150618 L296.794414,0.857142857 Z" id="Path"></path>
                    <path d="M327.686007,59.1428571 L327.686007,1.71428571 L353.64782,1.71428571 C358.86681,1.71428571 362.834307,2.23007211 365.550312,3.2616449 C368.266317,4.2932177 370.436459,6.11479244 372.060736,8.72636913 C373.685014,11.3379458 374.497152,14.2237381 374.497152,17.3837459 C374.497152,21.4578055 373.152464,24.8920288 370.463086,27.6864159 C367.773709,30.480803 363.619818,32.2566751 358.001416,33.0140324 C360.051733,33.9803157 361.609442,34.9335412 362.674542,35.8737088 C364.93788,37.9107386 367.081394,40.4570259 369.105084,43.5125706 L379.290102,59.1428571 L369.544437,59.1428571 L361.795835,47.1948938 C359.532497,43.7476126 357.668572,41.1099201 356.20406,39.2818164 C354.739547,37.4537127 353.428143,36.1740401 352.269846,35.4427987 C351.11155,34.7115572 349.933283,34.2022997 348.735046,33.9150263 C347.856338,33.7322159 346.418453,33.6408108 344.421391,33.6408108 L335.434609,33.6408108 L335.434609,59.1428571 L327.686007,59.1428571 Z M335.434609,27.0596375 L352.090111,27.0596375 C355.631568,27.0596375 358.400828,26.7005457 360.397891,25.9823621 C362.394953,25.2641785 363.912721,24.1150848 364.951193,22.5350809 C365.989666,20.955077 366.508902,19.2379653 366.508902,17.3837459 C366.508902,14.6677061 365.503714,12.434808 363.493338,10.6850516 C361.482962,8.93529526 358.307632,8.06041707 353.96735,8.06041707 L335.434609,8.06041707 L335.434609,27.0596375 Z" id="Shape"></path>
                    <polygon id="Path" points="395.631399 59.1428571 395.631399 1.71428571 437.298326 1.71428571 437.298326 8.49132723 403.257233 8.49132723 403.257233 26.0802962 435.136363 26.0802962 435.136363 32.8181641 403.257233 32.8181641 403.257233 52.3658156 438.634812 52.3658156 438.634812 59.1428571"></polygon>
                    <path d="M456.696246,40.3693931 L464.114058,39.7361478 C464.465357,42.6385224 465.282803,45.0197889 466.566395,46.8799472 C467.849987,48.7401055 469.842933,50.2440633 472.545233,51.3918206 C475.247532,52.5395778 478.287619,53.1134565 481.665494,53.1134565 C484.665046,53.1134565 487.3133,52.6781003 489.610255,51.8073879 C491.907209,50.9366755 493.616414,49.7427441 494.737868,48.2255937 C495.859322,46.7084433 496.42005,45.0527704 496.42005,43.2585752 C496.42005,41.4379947 495.87959,39.848285 494.79867,38.4894459 C493.71775,37.1306069 491.934232,35.9894459 489.448117,35.0659631 C487.85376,34.4591029 484.327259,33.5158311 478.868614,32.2361478 C473.409969,30.9564644 469.586215,29.7493404 467.397352,28.6147757 C464.559938,27.1635884 462.445388,25.3627968 461.053704,23.2124011 C459.66202,21.0620053 458.966177,18.6543536 458.966177,15.9894459 C458.966177,13.060686 459.817402,10.323219 461.51985,7.77704485 C463.222299,5.23087071 465.708415,3.29815303 468.978197,1.97889182 C472.24798,0.659630607 475.882573,0 479.881976,0 C484.286725,0 488.17128,0.692612137 491.535643,2.07783641 C494.900006,3.46306069 497.487458,5.50131926 499.297999,8.19261214 C501.108539,10.883905 502.081367,13.9313984 502.216482,17.3350923 L494.677066,17.8891821 C494.271721,14.2216359 492.900304,11.4511873 490.562815,9.57783641 C488.225326,7.70448549 484.773138,6.76781003 480.206252,6.76781003 C475.450205,6.76781003 471.984506,7.61873351 469.809154,9.32058047 C467.633803,11.0224274 466.546128,13.0738786 466.546128,15.474934 C466.546128,17.5593668 467.316283,19.2744063 468.856594,20.6200528 C470.369882,21.9656992 474.321995,23.3443272 480.712933,24.7559367 C487.103872,26.1675462 491.488353,27.4010554 493.866377,28.4564644 C497.32532,30.0131926 499.878993,31.9854881 501.527396,34.3733509 C503.175799,36.7612137 504,39.5118734 504,42.6253298 C504,45.7124011 503.09473,48.621372 501.284189,51.3522427 C499.473648,54.0831135 496.872685,56.207124 493.481299,57.7242744 C490.089913,59.2414248 486.272915,60 482.030304,60 C476.652728,60 472.146644,59.2348285 468.512051,57.7044855 C464.877458,56.1741425 462.026532,53.8720317 459.959272,50.798153 C457.892013,47.7242744 456.804338,44.2480211 456.696246,40.3693931 Z" id="Path"></path>
                </g>
            </g>
        </g>
    </g>
</svg>